<svg width="128" height="128" viewBox="0 0 128 128" fill="none" xmlns="http://www.w3.org/2000/svg">
<g clip-path="url(#clip0_71_2450)">
<rect width="128" height="128" rx="20" fill="#FF9F04"/>
<path d="M63.1875 108.562C36.4375 108.562 19.6875 90.875 19.6875 61.9375C19.6875 33.25 36.4375 15.25 63.1875 15.25C89.875 15.25 106.625 33.25 106.625 61.9375C106.625 77.8125 101.562 90.5625 92.25 98.25L103.688 115.5H85.375L78.9375 106.062C74.125 107.75 68.875 108.562 63.1875 108.562ZM63.1875 92.9375C65.5 92.9375 67.625 92.625 69.625 92.0625L59.75 77.3125H76.8125L80.75 82.6875C85 77.8125 87.375 70.625 87.375 61.9375C87.375 43 77.9375 30.8125 63.1875 30.8125C48.375 30.8125 38.9375 43 38.9375 61.9375C38.9375 80.8125 48.375 92.9375 63.1875 92.9375Z" fill="black"/>
</g>
<defs>
<clipPath id="clip0_71_2450">
<rect width="128" height="128" rx="20" fill="white"/>
</clipPath>
</defs>
</svg>
